<svg width="744" height="792" viewBox="0 0 744 792" fill="none" xmlns="http://www.w3.org/2000/svg">
<circle cx="441.5" cy="350.5" r="426.5" stroke="#1D1D1D" stroke-width="30"/>
<path d="M441 287.999C475.333 287.999 503.333 315.999 503.333 350.999C503.333 384.332 475.333 412.666 441 412.666C406.667 412.666 378.667 384.332 378.667 350.999C378.667 315.999 406.667 287.999 441 287.999ZM286.667 617.666C307.667 630.332 353.667 610.999 406.667 560.999C389.333 541.332 372.333 519.999 356.333 497.666C329.472 495.095 302.767 491.089 276.333 485.666C259.333 556.999 265.667 605.999 286.667 617.666ZM310.333 426.332L300.667 409.332C297 418.999 293.333 428.666 291 437.999C300 439.999 310 441.666 320.333 443.332L310.333 426.332ZM528.333 400.999L555.333 350.999L528.333 300.999C518.333 283.332 507.667 267.666 498 251.999C480 250.999 461 250.999 441 250.999C421 250.999 402 250.999 384 251.999C374.333 267.666 363.667 283.332 353.667 300.999L326.667 350.999L353.667 400.999C363.667 418.666 374.333 434.332 384 449.999C402 450.999 421 450.999 441 450.999C461 450.999 480 450.999 498 449.999C507.667 434.332 518.333 418.666 528.333 400.999ZM441 176.999C434.667 184.332 428 191.999 421.333 200.999H460.667C454 191.999 447.333 184.332 441 176.999ZM441 524.999C447.333 517.666 454 509.999 460.667 500.999H421.333C428 509.999 434.667 517.666 441 524.999ZM595 84.3323C574.333 71.6656 528.333 90.999 475.333 140.999C492.667 160.666 509.667 181.999 525.667 204.332C553 206.999 580 210.999 605.667 216.332C622.667 144.999 616.333 95.999 595 84.3323ZM571.667 275.666L581.333 292.666C585 282.999 588.667 273.332 591 263.999C582 261.999 572 260.332 561.667 258.666L571.667 275.666ZM620 40.6656C669 68.6656 674.333 142.332 653.667 228.332C738.333 253.332 799.333 294.666 799.333 350.999C799.333 407.332 738.333 448.666 653.667 473.666C674.333 559.666 669 633.332 620 661.332C571.333 689.332 505 657.332 441 596.332C377 657.332 310.667 689.332 261.667 661.332C213 633.332 207.667 559.666 228.333 473.666C143.667 448.666 82.6667 407.332 82.6667 350.999C82.6667 294.666 143.667 253.332 228.333 228.332C207.667 142.332 213 68.6656 261.667 40.6656C310.667 12.6656 377 44.6656 441 105.666C505 44.6656 571.333 12.6656 620 40.6656ZM610.333 350.999C621.667 375.999 631.667 400.999 640 426.332C710 405.332 749.333 375.332 749.333 350.999C749.333 326.666 710 296.666 640 275.666C631.667 300.999 621.667 325.999 610.333 350.999ZM271.667 350.999C260.333 325.999 250.333 300.999 242 275.666C172 296.666 132.667 326.666 132.667 350.999C132.667 375.332 172 405.332 242 426.332C250.333 400.999 260.333 375.999 271.667 350.999ZM571.667 426.332L561.667 443.332C572 441.666 582 439.999 591 437.999C588.667 428.666 585 418.999 581.333 409.332L571.667 426.332ZM475.333 560.999C528.333 610.999 574.333 630.332 595 617.666C616.333 605.999 622.667 556.999 605.667 485.666C580 490.999 553 494.999 525.667 497.666C509.667 519.999 492.667 541.332 475.333 560.999ZM310.333 275.666L320.333 258.666C310 260.332 300 261.999 291 263.999C293.333 273.332 297 282.999 300.667 292.666L310.333 275.666ZM406.667 140.999C353.667 90.999 307.667 71.6656 286.667 84.3323C265.667 95.999 259.333 144.999 276.333 216.332C302.767 210.909 329.472 206.903 356.333 204.332C372.333 181.999 389.333 160.666 406.667 140.999Z" fill="#1D1D1D"/>
</svg>
